<?xml version="1.0" encoding="utf-8"?>
<!-- Generator: Adobe Illustrator 15.0.0, SVG Export Plug-In . SVG Version: 6.00 Build 0)  -->
<!DOCTYPE svg PUBLIC "-//W3C//DTD SVG 1.1//EN" "http://www.w3.org/Graphics/SVG/1.1/DTD/svg11.dtd">
<svg version="1.1" id="Layer_3" xmlns="http://www.w3.org/2000/svg" xmlns:xlink="http://www.w3.org/1999/xlink" x="0px" y="0px"
	 width="766.439px" height="174.658px" viewBox="0 0 766.439 174.658" enable-background="new 0 0 766.439 174.658"
	 xml:space="preserve">
<rect x="526.242" y="9.997" fill="#CADB34" width="3.921" height="154.199"/>
<g>
	<path fill="#AFBF2D" d="M538.127,142.715V51.698l18.322-1.963v5.234c4.885-3.489,9.684-5.234,14.395-5.234
		c10.033,0,17.994,3.271,23.882,9.815c5.892,6.542,8.834,14.177,8.834,22.901c0,8.725-2.942,16.359-8.834,22.901
		c-5.888,6.544-13.849,9.815-23.882,9.815c-6.543-0.436-11.342-2.202-14.395-5.301v32.913L538.127,142.715z M556.449,76.563v10.6
		c0.871,7.33,5.451,11.625,13.74,12.891c10.47-0.829,16.357-6.26,17.667-16.293c-0.437-12.213-6.326-18.538-17.667-18.976
		C561.9,66.093,557.32,70.02,556.449,76.563z"/>
	<path fill="#AFBF2D" d="M610.746,106.302c-6.368-6.39-9.553-14.318-9.553-23.784c0-9.509,3.185-17.449,9.553-23.818
		c6.369-6.368,14.308-9.553,23.818-9.553c9.509,0,17.447,3.185,23.816,9.553c6.37,6.369,9.554,14.309,9.554,23.818
		c0,9.509-3.184,17.449-9.554,23.817c-6.369,6.369-14.308,9.553-23.816,9.553C625.054,115.888,617.115,112.692,610.746,106.302z
		 M634.498,100.054c4.973,0,9.008-1.669,12.105-5.007c3.096-3.337,4.646-7.491,4.646-12.464c0-4.973-1.55-9.138-4.646-12.498
		c-3.098-3.358-7.153-5.038-12.171-5.038c-4.93,0-8.943,1.68-12.04,5.038c-3.098,3.359-4.645,7.525-4.645,12.498
		c0,4.973,1.547,9.127,4.645,12.464C625.489,98.385,629.526,100.054,634.498,100.054z"/>
	<path fill="#AFBF2D" d="M730.805,17.149v98.084h-18.323v-5.234c-4.886,3.489-9.684,5.234-14.395,5.234
		c-10.034,0-17.994-3.271-23.882-9.814c-5.89-6.544-8.834-14.176-8.834-22.901c0-8.725,2.944-16.359,8.834-22.902
		c5.888-6.543,13.848-9.815,23.882-9.815c6.543,0.437,11.341,2.203,14.395,5.3V17.085L730.805,17.149z M712.481,88.406V77.806
		c-0.874-7.328-5.452-11.624-13.739-12.89c-10.47,0.829-16.359,6.259-17.667,16.292c0.436,12.214,6.325,18.541,17.667,18.975
		C707.029,98.875,711.607,94.949,712.481,88.406z"/>
</g>
<g>
	<path fill="#304A5E" d="M743.497,105.635v1.839h-3.281v8.004h-1.969v-8.004h-3.28v-1.839H743.497z"/>
	<path fill="#304A5E" d="M743.791,115.478v-9.843h0.656l4.266,4.856l4.271-4.856h0.655v9.843h-1.968l-0.008-5.707l-2.951,3.28
		l-2.953-3.28v5.707H743.791z"/>
</g>
<polygon fill="#AFBF2D" points="247.887,117.176 274.232,118.237 275.385,144.675 302.819,89.712 "/>
<linearGradient id="SVGID_1_" gradientUnits="userSpaceOnUse" x1="273.7188" y1="117.2588" x2="302.7559" y2="117.2588">
	<stop  offset="0" style="stop-color:#CADB34"/>
	<stop  offset="0.6258" style="stop-color:#889721"/>
</linearGradient>
<polygon fill="url(#SVGID_1_)" points="273.719,118.153 274.232,118.237 275.385,144.675 302.756,89.843 "/>
<g>
	<path fill="#AFBF2D" d="M109.473,49.801c-6.718,0-12.41,2.399-17.078,7.198v-7.263l-18.319,1.963v14.438
		c-1.218-2.11-2.659-4.069-4.291-5.847c-0.202-0.247-0.393-0.496-0.612-0.739c-5.889-6.544-13.85-9.815-23.883-9.815
		c-0.985,0-1.977,0.094-2.972,0.248c-4.084,0.463-7.938,1.695-11.423,3.548v-3.795l-18.321,1.963v91.016l18.321,0.065v-30.688
		c4.511,2.396,9.636,3.76,15.079,3.76c11.985,0,22.45-6.577,28.102-16.367v15.748h18.319V74.992
		c2.966-6.151,6.675-9.378,11.124-9.683c3.97,0.13,7.023,1.156,9.161,3.076l2.879-18.06
		C113.638,49.976,111.609,49.801,109.473,49.801z M30.895,87.163v-10.6c0.871-6.544,5.451-10.469,13.74-11.779
		c11.342,0.438,17.23,6.762,17.667,18.976c-1.308,10.033-7.196,15.465-17.667,16.293C36.346,98.788,31.766,94.492,30.895,87.163z"/>
	<path fill="#FFFFFF" d="M118.067,65.768c-0.07-2.92,0.271-5.796,1.284-8.538c-0.534,0.471-1.061,0.957-1.574,1.47
		c-4.013,4.012-6.758,8.648-8.242,13.905c0.705-0.315,1.448-0.593,2.23-0.826c1.676-0.499,3.248-0.779,4.729-1.138
		C116.737,68.917,117.258,67.25,118.067,65.768z"/>
	<path fill="#38546B" d="M328.259,58.7c-6.37-6.368-14.309-9.553-23.818-9.553c-9.511,0-17.45,3.186-23.817,9.553
		c-4.775,4.775-7.761,10.433-8.954,16.973v-1.006c0-6.544-2.183-12.322-6.544-17.341c-4.362-5.015-10.688-7.524-18.975-7.524
		c-9.598,0-16.795,2.509-21.594,7.524c-4.363-5.015-10.688-7.524-18.975-7.524c-6.369,0-11.604,1.919-15.704,5.758v-5.823
		l-18.321,1.963v15.482c-1.533-3.081-3.575-5.911-6.146-8.481c-0.585-0.585-1.188-1.134-1.801-1.666
		c1.935,16.958,0.697,33.684,0.28,50.726c0.516-0.459,1.025-0.929,1.521-1.425c2.57-2.57,4.612-5.399,6.146-8.48v17.379h18.321
		V73.356c2.923-5.103,6.391-7.786,10.404-8.047c4.405,0.13,7.589,1.396,9.552,3.795c1.964,2.399,2.945,5.78,2.945,10.142v35.987
		h18.32V76.629c0-1.396,0.109-2.77,0.328-4.123c2.66-4.536,5.801-6.936,9.422-7.197c4.405,0.13,7.591,1.396,9.553,3.795
		c1.963,2.399,2.945,5.78,2.945,10.142v31.173l18.321-8.923V89.304c0.648,3.534,1.819,6.814,3.516,9.843l14.801-7.21
		c-1.563-2.709-2.36-5.819-2.36-9.354c0-4.973,1.548-9.139,4.646-12.498c3.097-3.358,7.108-5.038,12.04-5.038
		c5.015,0,9.071,1.68,12.169,5.038c3.099,3.359,4.646,7.524,4.646,12.498s-1.548,9.127-4.646,12.464
		c-3.098,3.338-7.132,5.007-12.104,5.007c-0.859,0-1.682-0.069-2.485-0.169l-7.165,14.739c3.032,0.838,6.27,1.264,9.716,1.264
		c9.51,0,17.448-3.184,23.818-9.553c6.367-6.368,9.553-14.307,9.553-23.817C337.812,73.008,334.626,65.069,328.259,58.7z"/>
	<path fill="#38546B" d="M512.543,57.325c-4.363-5.015-10.688-7.524-18.975-7.524c-6.064,0-11.3,1.962-15.704,5.888v-5.953
		l-18.321,1.963v19.209c-1.57-4.564-4.141-8.634-7.715-12.209c-6.369-6.368-14.308-9.553-23.816-9.553
		c-9.511,0-17.449,3.186-23.818,9.553c-3.387,3.388-5.866,7.226-7.45,11.502V49.736h-18.322v50.165
		c-2.312,0-10.754,0.817-13.892-2.17c-1.476-1.404-2.193-3.872-2.193-7.362V64.654h9.816V49.866h-9.816V30.171l-18.387,1.963v17.732
		h-9.814v14.788h9.814v28.332c0,6.544,2.181,11.887,6.544,16.03c4.362,4.146,10.251,6.217,17.667,6.217c3.832,0,10.261,0,10.261,0
		h18.322v-20.44c1.584,4.271,4.063,8.109,7.45,11.509c6.369,6.391,14.308,9.586,23.818,9.586c9.509,0,17.447-3.184,23.816-9.553
		c3.574-3.575,6.145-7.645,7.715-12.208v21.106h18.321V73.618c2.704-5.277,5.954-8.047,9.749-8.309
		c4.405,0.13,7.698,1.396,9.88,3.795c2.181,2.399,3.271,5.78,3.271,10.142v35.987h18.321V74.666
		C519.086,68.122,516.903,62.344,512.543,57.325z M440.051,95.047c-3.098,3.338-7.133,5.007-12.105,5.007s-9.008-1.669-12.105-5.007
		c-3.098-3.337-4.645-7.491-4.645-12.464s1.547-9.139,4.645-12.498c3.098-3.358,7.11-5.038,12.041-5.038
		c5.017,0,9.072,1.68,12.17,5.038c3.096,3.359,4.646,7.524,4.646,12.498S443.146,91.71,440.051,95.047z"/>
</g>
<defs>
	<filter id="Adobe_OpacityMaskFilter" filterUnits="userSpaceOnUse" x="172.504" y="64.929" width="25.569" height="20.015">
		<feFlood  style="flood-color:white;flood-opacity:1" result="back"/>
		<feBlend  in="SourceGraphic" in2="back" mode="normal"/>
	</filter>
</defs>
<mask maskUnits="userSpaceOnUse" x="172.504" y="64.929" width="25.569" height="20.015" id="SVGID_2_">
	<g filter="url(#Adobe_OpacityMaskFilter)">
		<defs>
			<filter id="Adobe_OpacityMaskFilter_1_" filterUnits="userSpaceOnUse" x="172.504" y="64.929" width="25.569" height="20.015">
				<feFlood  style="flood-color:white;flood-opacity:1" result="back"/>
				<feBlend  in="SourceGraphic" in2="back" mode="normal"/>
			</filter>
		</defs>
		<mask maskUnits="userSpaceOnUse" x="172.504" y="64.929" width="25.569" height="20.015" id="SVGID_2_">
			<g filter="url(#Adobe_OpacityMaskFilter_1_)">
			</g>
		</mask>
		<linearGradient id="SVGID_3_" gradientUnits="userSpaceOnUse" x1="179.9795" y1="66.2979" x2="189.7813" y2="82.6342">
			<stop  offset="0" style="stop-color:#FFFFFF"/>
			<stop  offset="0.3374" style="stop-color:#FFFFFF"/>
			<stop  offset="1" style="stop-color:#000000"/>
		</linearGradient>
		<path mask="url(#SVGID_2_)" fill="url(#SVGID_3_)" d="M191.604,72.457c1.908-3.239,4.067-5.365,6.47-6.409
			c-15.142-4.93-25.263,8.043-25.263,8.043c-0.059,0.211-0.188,0.428-0.307,0.646c0.003,0.01,0.005,0.021,0.008,0.031l0.1-0.208
			c-0.031,0.113-0.049,0.227-0.079,0.339c0.258,1.322,0.391,2.769,0.391,4.348v5.698l14.984-0.104
			c-0.329-3.838,0.602-7.496,2.8-10.976C190.99,73.374,191.292,72.908,191.604,72.457z"/>
	</g>
</mask>
<linearGradient id="SVGID_4_" gradientUnits="userSpaceOnUse" x1="179.9795" y1="66.2979" x2="189.7813" y2="82.6342">
	<stop  offset="0" style="stop-color:#0E2434"/>
	<stop  offset="0.3374" style="stop-color:#304A5E"/>
	<stop  offset="1" style="stop-color:#304A5E"/>
</linearGradient>
<path fill="url(#SVGID_4_)" d="M191.604,72.457c1.908-3.239,4.067-5.365,6.47-6.409c-15.142-4.93-25.263,8.043-25.263,8.043
	c-0.059,0.211-0.188,0.428-0.307,0.646c0.003,0.01,0.005,0.021,0.008,0.031l0.1-0.208c-0.031,0.113-0.049,0.227-0.079,0.339
	c0.258,1.322,0.391,2.769,0.391,4.348v5.698l14.984-0.104c-0.329-3.838,0.602-7.496,2.8-10.976
	C190.99,73.374,191.292,72.908,191.604,72.457z"/>
<g>
	<path fill="#AFBF2D" d="M117.417,106.483c-6.479-6.443-9.72-14.438-9.72-23.985c0-9.588,3.24-17.594,9.72-24.017
		c6.479-6.421,14.558-9.633,24.233-9.633c9.675,0,17.752,3.211,24.233,9.633c6.479,6.423,9.72,14.429,9.72,24.017
		c0,9.59-3.24,17.596-9.72,24.018c-6.481,6.424-14.559,9.633-24.233,9.633C131.975,116.149,123.896,112.928,117.417,106.483z
		 M141.583,100.183c5.061,0,9.166-1.684,12.316-5.047c3.151-3.367,4.729-7.556,4.729-12.571c0-5.014-1.577-9.215-4.729-12.603
		c-3.15-3.387-7.278-5.08-12.384-5.08c-5.015,0-9.098,1.693-12.248,5.08c-3.152,3.388-4.727,7.588-4.727,12.603
		c0,5.015,1.574,9.204,4.727,12.571C132.418,98.499,136.524,100.183,141.583,100.183z"/>
</g>
<g>
	<linearGradient id="SVGID_5_" gradientUnits="userSpaceOnUse" x1="291.2236" y1="90.0332" x2="275.9457" y2="79.6581">
		<stop  offset="0.6626" style="stop-color:#304A5E"/>
		<stop  offset="1" style="stop-color:#0E2434"/>
	</linearGradient>
	<path fill="url(#SVGID_5_)" d="M289.906,91.975c-1.953-3.319-2.694-7.022-2.215-11.11c0.307-4.022,1.721-7.467,4.217-10.349
		c-16.6,1.553-20.263,18.28-20.263,18.28c0.068,0.385-0.06,0.885,0.023,1.267v-0.759c0.626,3.42,1.755,6.598,3.363,9.542
		c0.056,0.098,0.114,0.194,0.171,0.292L289.906,91.975z"/>
</g>
<linearGradient id="SVGID_6_" gradientUnits="userSpaceOnUse" x1="602.3193" y1="94.7646" x2="648.8516" y2="94.7646">
	<stop  offset="0.1043" style="stop-color:#889721"/>
	<stop  offset="0.454" style="stop-color:#AFBF2D"/>
</linearGradient>
<path fill="url(#SVGID_6_)" d="M640.988,98.895c-1.95,0.767-4.108,1.159-6.49,1.159c-4.973,0-9.009-1.669-12.104-5.007
	c-3.099-3.337-4.646-7.491-4.646-12.465c0-3.348,0.719-6.324,2.125-8.94c-0.218,0.096-0.426,0.182-0.651,0.289
	c-15.028,7.188-17.101,18.577-16.889,17.809c1.438,5.515,4.236,10.372,8.413,14.563c6.369,6.391,14.308,9.586,23.817,9.586
	c5.24,0,10.001-0.973,14.288-2.905L640.988,98.895z"/>
<linearGradient id="SVGID_7_" gradientUnits="userSpaceOnUse" x1="666.5703" y1="95.5557" x2="704.4375" y2="95.5557">
	<stop  offset="0.1043" style="stop-color:#889721"/>
	<stop  offset="0.454" style="stop-color:#AFBF2D"/>
</linearGradient>
<path fill="url(#SVGID_7_)" d="M700.73,99.794c-0.641,0.146-1.297,0.279-1.99,0.39c-11.342-0.435-17.229-6.761-17.666-18.975
	c0.256-1.953,0.689-3.726,1.29-5.33c-0.032,0.005-0.059,0.006-0.091,0.011c-11.761,1.96-15.681,16.335-15.681,16.335l-0.022,0.393
	c0.047-0.159,0.086-0.321,0.129-0.482c1.396,4.838,3.891,9.269,7.506,13.284c5.889,6.544,13.848,9.814,23.883,9.814
	c2.099,0,4.217-0.367,6.35-1.059L700.73,99.794z"/>
<linearGradient id="SVGID_8_" gradientUnits="userSpaceOnUse" x1="73.2324" y1="92.2842" x2="106.5545" y2="106.9851">
	<stop  offset="0.1043" style="stop-color:#889721"/>
	<stop  offset="0.3374" style="stop-color:#AFBF2D"/>
</linearGradient>
<path fill="url(#SVGID_8_)" d="M92.395,110.681V78.16c-18.208,10.764-18.319,22.343-18.319,22.343v14.73h13.2L92.395,110.681z"/>
<defs>
	<filter id="Adobe_OpacityMaskFilter_2_" filterUnits="userSpaceOnUse" x="396.743" y="73.027" width="51.673" height="42.861">
		<feFlood  style="flood-color:white;flood-opacity:1" result="back"/>
		<feBlend  in="SourceGraphic" in2="back" mode="normal"/>
	</filter>
</defs>
<mask maskUnits="userSpaceOnUse" x="396.743" y="73.027" width="51.673" height="42.861" id="SVGID_9_">
	<g filter="url(#Adobe_OpacityMaskFilter_2_)">
		<defs>
			<filter id="Adobe_OpacityMaskFilter_3_" filterUnits="userSpaceOnUse" x="396.743" y="73.027" width="51.673" height="42.861">
				<feFlood  style="flood-color:white;flood-opacity:1" result="back"/>
				<feBlend  in="SourceGraphic" in2="back" mode="normal"/>
			</filter>
		</defs>
		<mask maskUnits="userSpaceOnUse" x="396.743" y="73.027" width="51.673" height="42.861" id="SVGID_9_">
			<g filter="url(#Adobe_OpacityMaskFilter_3_)">
			</g>
		</mask>
		<linearGradient id="SVGID_10_" gradientUnits="userSpaceOnUse" x1="402.5771" y1="78.043" x2="429.5838" y2="108.5335">
			<stop  offset="0" style="stop-color:#FFFFFF"/>
			<stop  offset="0.3374" style="stop-color:#FFFFFF"/>
			<stop  offset="1" style="stop-color:#000000"/>
		</linearGradient>
		<path mask="url(#SVGID_9_)" fill="url(#SVGID_10_)" d="M448.416,109.318l-7.837-14.896c-0.178,0.207-0.342,0.423-0.528,0.624
			c-3.098,3.338-7.133,5.007-12.105,5.007s-9.008-1.669-12.105-5.007c-3.098-3.337-4.645-7.491-4.645-12.464
			c0-3.614,0.828-6.794,2.463-9.556c-0.005,0.001-0.008,0.002-0.01,0.003c-16.093,4.434-16.905,21.763-16.905,21.763
			c1.584,4.271,4.063,8.109,7.45,11.509c6.369,6.391,14.308,9.586,23.818,9.586C435.895,115.888,442.693,113.693,448.416,109.318z"
			/>
	</g>
</mask>
<linearGradient id="SVGID_11_" gradientUnits="userSpaceOnUse" x1="402.5771" y1="78.043" x2="429.5838" y2="108.5335">
	<stop  offset="0" style="stop-color:#0E2434"/>
	<stop  offset="0.3374" style="stop-color:#304A5E"/>
	<stop  offset="1" style="stop-color:#304A5E"/>
</linearGradient>
<path fill="url(#SVGID_11_)" d="M448.416,109.318l-7.837-14.896c-0.178,0.207-0.342,0.423-0.528,0.624
	c-3.098,3.338-7.133,5.007-12.105,5.007s-9.008-1.669-12.105-5.007c-3.098-3.337-4.645-7.491-4.645-12.464
	c0-3.614,0.828-6.794,2.463-9.556c-0.005,0.001-0.008,0.002-0.01,0.003c-16.093,4.434-16.905,21.763-16.905,21.763
	c1.584,4.271,4.063,8.109,7.45,11.509c6.369,6.391,14.308,9.586,23.818,9.586C435.895,115.888,442.693,113.693,448.416,109.318z"/>
<linearGradient id="SVGID_12_" gradientUnits="userSpaceOnUse" x1="459.3252" y1="80.8145" x2="477.6199" y2="110.4348">
	<stop  offset="0" style="stop-color:#0E2434"/>
	<stop  offset="0.3374" style="stop-color:#304A5E"/>
</linearGradient>
<path fill="url(#SVGID_12_)" d="M459.543,94.127v21.106h18.321v-38.47C463.809,77.09,459.543,94.127,459.543,94.127z"/>
<circle fill="#38546B" cx="387.151" cy="34.863" r="9.03"/>
</svg>
