<?xml version="1.0" encoding="utf-8"?>
<!-- Generator: Adobe Illustrator 15.0.0, SVG Export Plug-In . SVG Version: 6.00 Build 0)  -->
<!DOCTYPE svg PUBLIC "-//W3C//DTD SVG 1.1//EN" "http://www.w3.org/Graphics/SVG/1.1/DTD/svg11.dtd">
<svg version="1.1" xmlns="http://www.w3.org/2000/svg" xmlns:xlink="http://www.w3.org/1999/xlink" x="0px" y="0px"
	 width="59.464px" height="59.107px" viewBox="0 0 59.464 59.107" enable-background="new 0 0 59.464 59.107" xml:space="preserve">
<g id="Layer_3" display="none">
	<rect x="-286.965" y="-186.964" display="inline" fill="#38546B" width="759" height="432"/>
</g>
<g id="Layer_1">
	<g>
		<polygon fill="#CADB34" points="2.553,41.237 18.218,41.832 18.903,56.63 35.216,25.863 		"/>
		<linearGradient id="SVGID_1_" gradientUnits="userSpaceOnUse" x1="17.9131" y1="41.2832" x2="35.1797" y2="41.2832">
			<stop  offset="0" style="stop-color:#CADB34"/>
			<stop  offset="0.6258" style="stop-color:#889721"/>
		</linearGradient>
		<polygon fill="url(#SVGID_1_)" points="17.913,41.785 18.218,41.832 18.903,56.63 35.18,25.937 		"/>
		<g>
			<path fill="#FFFFFF" d="M17.222,25.108c0.385,1.979,1.081,3.814,2.092,5.509l8.801-4.036c-0.932-1.515-1.405-3.258-1.405-5.235
				c0-2.783,0.921-5.115,2.764-6.996c1.841-1.879,4.226-2.819,7.159-2.819c2.982,0,5.393,0.939,7.237,2.819
				c1.841,1.881,2.761,4.213,2.761,6.996s-0.92,5.109-2.761,6.977c-1.845,1.867-4.241,2.804-7.2,2.804
				c-0.51,0-0.999-0.041-1.477-0.095l-4.261,8.25c1.803,0.47,3.728,0.707,5.778,0.707c5.654,0,10.374-1.784,14.162-5.347
				c3.786-3.566,5.681-8.01,5.681-13.333c0-5.323-1.895-9.767-5.681-13.332c-3.788-3.565-8.508-5.348-14.162-5.348
				c-5.655,0-10.377,1.783-14.162,5.348c-2.842,2.672-4.616,5.839-5.326,9.5v-0.564"/>
		</g>
		<g>
			<linearGradient id="SVGID_2_" gradientUnits="userSpaceOnUse" x1="29.5713" y1="26.2432" x2="19.3254" y2="19.2862">
				<stop  offset="0.5153" style="stop-color:#FFFFFF"/>
				<stop  offset="1" style="stop-color:#A7A9AC"/>
			</linearGradient>
			<path fill="url(#SVGID_2_)" d="M28.05,26.648c-1.16-1.86-1.602-3.931-1.315-6.219c0.183-2.252,1.022-4.181,2.507-5.792
				c-9.87,0.869-12.049,10.231-12.049,10.231c0.041,0.216-0.035,0.496,0.014,0.709v-0.424c0.373,1.914,1.043,3.691,2,5.341
				c0.032,0.054,0.067,0.109,0.102,0.164L28.05,26.648z"/>
		</g>
	</g>
	<g id="Layer_2">
	</g>
	<g>
		<path fill="#FFFFFF" d="M51.281,39.615v0.41h-0.73v1.782h-0.438v-1.782h-0.731v-0.41H51.281z"/>
		<path fill="#FFFFFF" d="M51.347,41.808v-2.192h0.146l0.95,1.081l0.951-1.081h0.146v2.192h-0.438L53.1,40.536l-0.656,0.73
			l-0.658-0.73v1.271H51.347z"/>
	</g>
</g>
</svg>
