<?xml version="1.0" encoding="utf-8"?>
<!-- Generator: Adobe Illustrator 15.0.0, SVG Export Plug-In . SVG Version: 6.00 Build 0)  -->
<!DOCTYPE svg PUBLIC "-//W3C//DTD SVG 1.1//EN" "http://www.w3.org/Graphics/SVG/1.1/DTD/svg11.dtd">
<svg version="1.1" id="Layer_1" xmlns="http://www.w3.org/2000/svg" xmlns:xlink="http://www.w3.org/1999/xlink" x="0px" y="0px"
	 width="172.253px" height="40.314px" viewBox="0 0 172.253 40.314" enable-background="new 0 0 172.253 40.314"
	 xml:space="preserve">
<g id="Layer_2">
</g>
<g>
	<rect x="118.229" y="3.396" fill="#CADB34" width="0.872" height="34.341"/>
	<g>
		<path fill="#CADB34" d="M120.875,32.953v-20.27l4.08-0.438v1.166c1.088-0.777,2.156-1.166,3.206-1.166
			c2.233,0,4.007,0.729,5.318,2.187s1.967,3.157,1.967,5.1c0,1.943-0.655,3.644-1.967,5.101s-3.085,2.186-5.318,2.186
			c-1.457-0.097-2.526-0.49-3.206-1.181v7.33L120.875,32.953z M124.955,18.222v2.36c0.193,1.632,1.214,2.589,3.061,2.87
			c2.331-0.185,3.643-1.394,3.935-3.628c-0.098-2.721-1.409-4.129-3.935-4.226C126.169,15.89,125.148,16.764,124.955,18.222z"/>
		<path fill="#CADB34" d="M137.047,24.844c-1.418-1.423-2.127-3.188-2.127-5.297c0-2.118,0.709-3.886,2.127-5.304
			c1.418-1.419,3.187-2.128,5.305-2.128c2.117,0,3.885,0.709,5.304,2.128c1.419,1.418,2.128,3.186,2.128,5.304
			s-0.709,3.887-2.128,5.305s-3.187,2.127-5.304,2.127C140.233,26.979,138.465,26.268,137.047,24.844z M142.337,23.452
			c1.107,0,2.006-0.372,2.695-1.114c0.69-0.743,1.035-1.669,1.035-2.776s-0.345-2.035-1.035-2.783
			c-0.689-0.748-1.593-1.122-2.71-1.122c-1.098,0-1.991,0.374-2.681,1.122c-0.69,0.748-1.035,1.676-1.035,2.783
			s0.345,2.033,1.035,2.776C140.331,23.08,141.229,23.452,142.337,23.452z"/>
		<path fill="#CADB34" d="M163.784,4.989v21.844h-4.08v-1.166c-1.088,0.777-2.156,1.166-3.206,1.166
			c-2.234,0-4.007-0.729-5.318-2.186c-1.312-1.458-1.968-3.157-1.968-5.101c0-1.942,0.656-3.644,1.968-5.101
			c1.312-1.456,3.084-2.186,5.318-2.186c1.457,0.098,2.525,0.491,3.206,1.181V4.975L163.784,4.989z M159.704,20.858v-2.36
			c-0.194-1.633-1.215-2.589-3.06-2.871c-2.332,0.185-3.644,1.395-3.936,3.629c0.098,2.72,1.409,4.129,3.936,4.226
			C158.489,23.189,159.51,22.315,159.704,20.858z"/>
	</g>
	<g>
		<path fill="#FFFFFF" d="M166.611,24.695v0.41h-0.73v1.782h-0.438v-1.782h-0.731v-0.41H166.611z"/>
		<path fill="#FFFFFF" d="M166.677,26.888v-2.192h0.146l0.95,1.081l0.951-1.081h0.146v2.192h-0.438l-0.002-1.271l-0.656,0.73
			l-0.658-0.73v1.271H166.677z"/>
	</g>
	<polygon fill="#CADB34" points="56.237,27.266 62.104,27.502 62.361,33.39 68.471,21.149 	"/>
	<linearGradient id="SVGID_1_" gradientUnits="userSpaceOnUse" x1="61.9902" y1="27.2842" x2="68.457" y2="27.2842">
		<stop  offset="0" style="stop-color:#CADB34"/>
		<stop  offset="0.6258" style="stop-color:#889721"/>
	</linearGradient>
	<polygon fill="url(#SVGID_1_)" points="61.99,27.483 62.104,27.502 62.361,33.39 68.457,21.179 	"/>
	<g>
		<path fill="#CADB34" d="M25.411,12.262c-1.495,0-2.763,0.533-3.803,1.603v-1.618l-4.08,0.438v3.216
			c-0.271-0.47-0.592-0.906-0.956-1.302c-0.044-0.056-0.087-0.111-0.136-0.165c-1.312-1.457-3.085-2.187-5.318-2.187
			c-0.22,0-0.441,0.021-0.662,0.056c-0.909,0.104-1.769,0.378-2.544,0.79v-0.846l-4.08,0.438v20.27l4.08,0.015v-6.835
			c1.004,0.534,2.146,0.839,3.358,0.839c2.669,0,4.999-1.466,6.258-3.646v3.507h4.08v-8.962c0.661-1.37,1.486-2.089,2.478-2.157
			c0.884,0.03,1.563,0.259,2.039,0.686l0.642-4.022C26.34,12.3,25.887,12.262,25.411,12.262z M7.912,20.582v-2.36
			c0.193-1.458,1.215-2.332,3.061-2.623c2.525,0.097,3.836,1.505,3.934,4.226c-0.291,2.234-1.603,3.443-3.934,3.628
			C9.127,23.171,8.105,22.214,7.912,20.582z"/>
		<path fill="#FFFFFF" d="M27.326,15.817c-0.016-0.65,0.06-1.291,0.285-1.902c-0.119,0.105-0.236,0.213-0.351,0.328
			c-0.893,0.893-1.505,1.926-1.835,3.097c0.157-0.07,0.322-0.133,0.497-0.185c0.373-0.111,0.723-0.173,1.052-0.253
			C27.029,16.518,27.146,16.147,27.326,15.817z"/>
		<path fill="#FFFFFF" d="M74.137,14.243c-1.419-1.419-3.188-2.128-5.305-2.128c-2.118,0-3.886,0.709-5.305,2.128
			c-1.063,1.062-1.729,2.323-1.994,3.78v-0.226c0-1.457-0.485-2.743-1.457-3.861c-0.972-1.117-2.38-1.675-4.226-1.675
			c-2.138,0-3.74,0.558-4.81,1.675c-0.971-1.117-2.38-1.675-4.226-1.675c-1.418,0-2.585,0.427-3.497,1.281v-1.297l-4.081,0.438
			v3.448c-0.341-0.687-0.796-1.317-1.368-1.889c-0.13-0.131-0.265-0.253-0.4-0.371c0.43,3.776,0.154,7.501,0.062,11.296
			c0.114-0.102,0.228-0.206,0.338-0.316c0.572-0.572,1.027-1.203,1.368-1.889v3.87h4.081v-9.326c0.65-1.137,1.423-1.734,2.316-1.793
			c0.981,0.03,1.691,0.312,2.128,0.846c0.438,0.534,0.655,1.287,0.655,2.259v8.015h4.081v-8.598c0-0.311,0.023-0.616,0.073-0.918
			c0.592-1.01,1.291-1.545,2.098-1.604c0.981,0.03,1.69,0.312,2.127,0.846c0.438,0.534,0.655,1.287,0.655,2.259v6.943l4.081-1.988
			v-2.715c0.144,0.787,0.405,1.518,0.783,2.192l3.296-1.606c-0.349-0.603-0.526-1.296-0.526-2.083c0-1.107,0.346-2.035,1.035-2.783
			s1.584-1.122,2.682-1.122c1.117,0,2.021,0.374,2.711,1.122c0.689,0.748,1.033,1.676,1.033,2.783s-0.344,2.033-1.033,2.776
			c-0.69,0.742-1.59,1.114-2.697,1.114c-0.191,0-0.374-0.015-0.553-0.037l-1.596,3.282c0.676,0.187,1.396,0.281,2.164,0.281
			c2.117,0,3.886-0.709,5.305-2.127c1.418-1.418,2.127-3.187,2.127-5.305S75.555,15.661,74.137,14.243z"/>
		<path fill="#FFFFFF" d="M115.177,13.937c-0.972-1.117-2.381-1.675-4.226-1.675c-1.351,0-2.517,0.437-3.497,1.311v-1.326
			l-4.08,0.438v4.278c-0.351-1.017-0.922-1.923-1.719-2.719c-1.418-1.419-3.186-2.128-5.304-2.128s-3.887,0.709-5.305,2.128
			c-0.754,0.754-1.307,1.608-1.659,2.561v-4.558h-4.08v11.173c-0.515,0-2.396,0.182-3.095-0.483
			c-0.328-0.312-0.487-0.862-0.487-1.64v-5.728h2.186v-3.293h-2.186V7.89l-4.095,0.438v3.948h-2.186v3.293h2.186v6.311
			c0,1.457,0.485,2.646,1.457,3.569s2.283,1.385,3.934,1.385c0.854,0,2.286,0,2.286,0h4.08v-4.552
			c0.353,0.951,0.905,1.806,1.659,2.562c1.418,1.424,3.187,2.135,5.305,2.135s3.886-0.709,5.304-2.127
			c0.797-0.796,1.368-1.702,1.719-2.719v4.7h4.08v-9.268c0.603-1.176,1.325-1.793,2.171-1.852c0.98,0.03,1.715,0.312,2.2,0.846
			s0.729,1.287,0.729,2.259v8.015h4.079v-9.035C116.634,16.341,116.148,15.055,115.177,13.937z M99.032,22.338
			c-0.689,0.742-1.588,1.114-2.695,1.114s-2.007-0.372-2.695-1.114c-0.69-0.743-1.035-1.669-1.035-2.776s0.345-2.035,1.035-2.783
			c0.688-0.748,1.583-1.122,2.681-1.122c1.117,0,2.021,0.374,2.71,1.122c0.69,0.748,1.035,1.676,1.035,2.783
			S99.723,21.595,99.032,22.338z"/>
	</g>
	<linearGradient id="SVGID_2_" gradientUnits="userSpaceOnUse" x1="44.0039" y1="19.1113" x2="40.0746" y2="16.4434">
		<stop  offset="0.5153" style="stop-color:#FFFFFF"/>
		<stop  offset="1" style="stop-color:#A7A9AC"/>
	</linearGradient>
	<path fill="url(#SVGID_2_)" d="M43.703,17.307c0.424-0.722,0.905-1.195,1.44-1.428c-3.372-1.098-5.626,1.791-5.626,1.791
		c-0.014,0.048-0.043,0.096-0.068,0.144c0,0.003,0.001,0.005,0.002,0.008l0.021-0.047c-0.007,0.025-0.011,0.051-0.018,0.075
		c0.058,0.295,0.087,0.617,0.087,0.969v1.27l3.337-0.023c-0.073-0.854,0.135-1.669,0.624-2.444
		C43.565,17.511,43.633,17.407,43.703,17.307z"/>
	<g>
		<path fill="#CADB34" d="M27.181,24.885c-1.443-1.436-2.165-3.216-2.165-5.342c0-2.136,0.722-3.918,2.165-5.349
			c1.443-1.43,3.242-2.146,5.397-2.146c2.154,0,3.953,0.716,5.396,2.146c1.442,1.431,2.165,3.213,2.165,5.349
			s-0.723,3.918-2.165,5.349c-1.443,1.431-3.242,2.146-5.396,2.146C30.423,27.037,28.624,26.319,27.181,24.885z M32.563,23.481
			c1.126,0,2.04-0.375,2.742-1.124c0.702-0.75,1.053-1.684,1.053-2.8s-0.351-2.053-1.053-2.807s-1.621-1.132-2.757-1.132
			c-1.118,0-2.027,0.378-2.729,1.132c-0.701,0.754-1.053,1.69-1.053,2.807s0.352,2.05,1.053,2.8
			C30.521,23.106,31.436,23.481,32.563,23.481z"/>
	</g>
	<g>
		<linearGradient id="SVGID_3_" gradientUnits="userSpaceOnUse" x1="66.2139" y1="21.4414" x2="62.2976" y2="18.7823">
			<stop  offset="0.5153" style="stop-color:#FFFFFF"/>
			<stop  offset="1" style="stop-color:#A7A9AC"/>
		</linearGradient>
		<path fill="url(#SVGID_3_)" d="M65.595,21.652c-0.435-0.738-0.6-1.562-0.493-2.474c0.068-0.896,0.383-1.662,0.939-2.305
			c-3.697,0.347-4.513,4.071-4.513,4.071c0.016,0.085-0.013,0.197,0.005,0.282v-0.169c0.14,0.762,0.391,1.469,0.749,2.125
			c0.013,0.021,0.026,0.043,0.038,0.064L65.595,21.652z"/>
	</g>
	<linearGradient id="SVGID_4_" gradientUnits="userSpaceOnUse" x1="135.1709" y1="22.2744" x2="145.5332" y2="22.2744">
		<stop  offset="0.1043" style="stop-color:#889721"/>
		<stop  offset="0.3804" style="stop-color:#CADB34"/>
	</linearGradient>
	<path fill="url(#SVGID_4_)" d="M143.782,23.194c-0.434,0.17-0.915,0.258-1.445,0.258c-1.108,0-2.006-0.372-2.695-1.114
		c-0.69-0.743-1.035-1.669-1.035-2.776c0-0.745,0.161-1.408,0.474-1.991c-0.049,0.021-0.096,0.04-0.146,0.064
		c-3.347,1.601-3.809,4.137-3.761,3.966c0.32,1.228,0.943,2.31,1.873,3.243c1.418,1.424,3.187,2.135,5.305,2.135
		c1.167,0,2.227-0.217,3.182-0.646L143.782,23.194z"/>
	<linearGradient id="SVGID_5_" gradientUnits="userSpaceOnUse" x1="149.4795" y1="22.4512" x2="157.9121" y2="22.4512">
		<stop  offset="0.1043" style="stop-color:#889721"/>
		<stop  offset="0.3804" style="stop-color:#CADB34"/>
	</linearGradient>
	<path fill="url(#SVGID_5_)" d="M157.087,23.395c-0.143,0.033-0.288,0.062-0.442,0.087c-2.526-0.097-3.838-1.506-3.936-4.226
		c0.058-0.436,0.154-0.83,0.287-1.188c-0.006,0.001-0.012,0.001-0.02,0.003c-2.619,0.437-3.492,3.638-3.492,3.638l-0.005,0.087
		c0.011-0.035,0.019-0.071,0.028-0.106c0.312,1.076,0.867,2.063,1.672,2.958c1.312,1.457,3.084,2.186,5.318,2.186
		c0.468,0,0.939-0.081,1.414-0.236L157.087,23.395z"/>
	<linearGradient id="SVGID_6_" gradientUnits="userSpaceOnUse" x1="17.3418" y1="21.7217" x2="24.7635" y2="24.996">
		<stop  offset="0.1043" style="stop-color:#889721"/>
		<stop  offset="0.3804" style="stop-color:#CADB34"/>
	</linearGradient>
	<path fill="url(#SVGID_6_)" d="M21.608,25.819v-7.243c-4.055,2.397-4.08,4.977-4.08,4.977v3.28h2.939L21.608,25.819z"/>
	<linearGradient id="SVGID_7_" gradientUnits="userSpaceOnUse" x1="89.3877" y1="22.2061" x2="100.8955" y2="22.2061">
		<stop  offset="0" style="stop-color:#A7A9AC"/>
		<stop  offset="0.2331" style="stop-color:#FFFFFF"/>
	</linearGradient>
	<path fill="url(#SVGID_7_)" d="M100.896,25.516l-1.745-3.316c-0.04,0.045-0.076,0.094-0.118,0.139
		c-0.689,0.742-1.588,1.114-2.695,1.114s-2.007-0.372-2.695-1.114c-0.69-0.743-1.035-1.669-1.035-2.776
		c0-0.805,0.185-1.514,0.548-2.128c0,0-0.001,0.001-0.002,0.001c-3.583,0.987-3.765,4.847-3.765,4.847
		c0.353,0.951,0.905,1.806,1.659,2.562c1.418,1.424,3.187,2.135,5.305,2.135C98.107,26.979,99.621,26.49,100.896,25.516z"/>
	<linearGradient id="SVGID_8_" gradientUnits="userSpaceOnUse" x1="106.6592" y1="23.1836" x2="102.8521" y2="21.2437">
		<stop  offset="0.4172" style="stop-color:#FFFFFF"/>
		<stop  offset="1" style="stop-color:#A7A9AC"/>
	</linearGradient>
	<path fill="url(#SVGID_8_)" d="M103.374,22.133v4.7h4.08v-8.567C104.323,18.338,103.374,22.133,103.374,22.133z"/>
	<circle fill="#FFFFFF" cx="87.252" cy="8.934" r="2.011"/>
</g>
</svg>
